<svg xmlns="http://www.w3.org/2000/svg" viewBox="0 0 120 200">
  <defs>
    <linearGradient id="cl-body" x1="0" y1="0" x2="1" y2="1">
      <stop offset="0%" stop-color="#FFE135"/>
      <stop offset="100%" stop-color="#F5A623"/>
    </linearGradient>
    <filter id="cl-shadow" x="-20%" y="-20%" width="140%" height="140%">
      <feDropShadow dx="0" dy="3" stdDeviation="4" flood-color="#000" flood-opacity="0.3"/>
    </filter>
  </defs>
  <g filter="url(#cl-shadow)">
    <path d="M 65 168 C 78 140, 84 105, 80 70 C 76 42, 66 22, 52 16 C 46 14, 42 18, 45 26 C 52 42, 56 60, 56 80 C 56 115, 48 145, 40 168 Z"
          fill="url(#cl-body)" stroke="#D4960A" stroke-width="1.2"/>
    <path d="M 52 16 C 54 10, 60 5, 58 1" stroke="#6B8E23" stroke-width="3.5" fill="none" stroke-linecap="round"/>
    <path d="M 62 38 C 68 58, 68 85, 63 115" stroke="rgba(255,255,255,0.45)" stroke-width="2.5" fill="none" stroke-linecap="round"/>
    <path d="M 58 55 C 62 65, 62 78, 60 92" stroke="rgba(255,255,255,0.2)" stroke-width="1.5" fill="none" stroke-linecap="round"/>
  </g>
</svg>
